<svg xmlns="http://www.w3.org/2000/svg" id="Product_Icons" data-name="Product Icons" viewBox="0 0 24 24"><defs><style>.cls-1{fill:#669df6}.cls-2{fill:#4285f4}.cls-3{fill:#aecbfa}</style></defs><title>Icon_24px_Color_NaturalLanguage</title><polygon points="20 4 17 4 17 6 20 6 20 18 17 18 17 20 20 20 22 20 22 18 22 6 22 4 20 4" class="cls-1"/><g id="Shape"><polygon points="20 7 22 6 20 6 20 7" class="cls-2"/><polygon points="22 17 20 18 22 18 22 17" class="cls-2"/></g><polygon points="4 20 7 20 7 18 4 18 4 6 7 6 7 4 4 4 2 4 2 6 2 18 2 20 4 20" class="cls-1"/><g id="Shape-2" data-name="Shape"><polygon points="2 17 4 18 2 18 2 17" class="cls-2"/><polygon points="4 7 2 6 4 6 4 7" class="cls-2"/></g><rect id="Rectangle-7-Copy" width="10" height="2" x="7" y="11" class="cls-3"/><rect id="Rectangle-7-Copy-2" width="10" height="2" x="7" y="14" class="cls-3" data-name="Rectangle-7-Copy"/><rect id="Rectangle-7-Copy-3" width="10" height="2" x="7" y="8" class="cls-3" data-name="Rectangle-7-Copy"/></svg>